<svg width="14" height="14" viewBox="0 0 14 14" fill="none" xmlns="http://www.w3.org/2000/svg">
<path d="M3.44645 12.3935H10.5597C11.7844 12.3935 12.3937 11.7842 12.3937 10.5772V3.4225C12.3937 2.2155 11.7844 1.60625 10.5597 1.60625H3.44645C2.2277 1.60625 1.60645 2.20975 1.60645 3.4225V10.5775C1.60645 11.7903 2.2277 12.3935 3.44645 12.3935ZM4.92295 9.593C4.63595 9.593 4.3957 9.35875 4.3957 9.0715C4.3957 8.93675 4.4542 8.808 4.5597 8.7025L6.25895 6.9915L4.5597 5.2865C4.4542 5.181 4.3957 5.052 4.3957 4.91725C4.3957 4.62425 4.6357 4.384 4.9232 4.384C5.0637 4.384 5.1867 4.43675 5.2922 4.54225L7.00319 6.25325L8.71395 4.54225C8.76026 4.49213 8.81649 4.45218 8.87907 4.42493C8.94164 4.39769 9.0092 4.38375 9.07745 4.384C9.21869 4.38453 9.35399 4.44089 9.45384 4.54078C9.55369 4.64068 9.60999 4.77601 9.61045 4.91725C9.61045 5.05225 9.55195 5.181 9.44645 5.2865L7.74145 6.9915L9.44645 8.7025C9.55195 8.808 9.61045 8.93675 9.61045 9.0715C9.61045 9.35875 9.37045 9.593 9.0772 9.593C8.9427 9.593 8.81369 9.5405 8.7197 9.4465L7.00319 7.724L5.2862 9.4465C5.23829 9.49365 5.18153 9.53087 5.11919 9.55601C5.05685 9.58115 4.99016 9.59372 4.92295 9.593Z" fill="#FF4141"/>
</svg>
