<svg width="19" height="19" viewBox="0 0 19 19" fill="none" xmlns="http://www.w3.org/2000/svg">
<path d="M8.70837 13.4583H10.2917V8.70834H8.70837V13.4583ZM10.0645 6.8978C10.216 6.7458 10.2917 6.55765 10.2917 6.33334C10.2917 6.10904 10.2157 5.92115 10.0637 5.76968C9.91171 5.6182 9.72382 5.5422 9.50004 5.54168C9.27626 5.54115 9.08838 5.61715 8.93638 5.76968C8.78438 5.9222 8.70837 6.11009 8.70837 6.33334C8.70837 6.55659 8.78438 6.74475 8.93638 6.8978C9.08838 7.05086 9.27626 7.12659 9.50004 7.12501C9.72382 7.12343 9.91197 7.04743 10.0645 6.89701M9.50004 17.4167C8.4049 17.4167 7.37574 17.2087 6.41254 16.7928C5.44935 16.377 4.6115 15.813 3.899 15.1011C3.1865 14.3891 2.62257 13.5512 2.20721 12.5875C1.79185 11.6238 1.5839 10.5946 1.58338 9.50001C1.58285 8.4054 1.79079 7.37623 2.20721 6.41251C2.62363 5.44879 3.18756 4.61094 3.899 3.89897C4.61044 3.187 5.44829 2.62307 6.41254 2.20718C7.37679 1.79129 8.40596 1.58334 9.50004 1.58334C10.5941 1.58334 11.6233 1.79129 12.5875 2.20718C13.5518 2.62307 14.3896 3.187 15.1011 3.89897C15.8125 4.61094 16.3767 5.44879 16.7937 6.41251C17.2106 7.37623 17.4183 8.4054 17.4167 9.50001C17.4151 10.5946 17.2072 11.6238 16.7929 12.5875C16.3786 13.5512 15.8146 14.3891 15.1011 15.1011C14.3875 15.813 13.5497 16.3772 12.5875 16.7936C11.6254 17.2101 10.5962 17.4177 9.50004 17.4167ZM9.50004 15.8333C11.2681 15.8333 12.7657 15.2198 13.9927 13.9927C15.2198 12.7656 15.8334 11.2681 15.8334 9.50001C15.8334 7.73195 15.2198 6.23439 13.9927 5.0073C12.7657 3.78022 11.2681 3.16668 9.50004 3.16668C7.73199 3.16668 6.23442 3.78022 5.00733 5.0073C3.78025 6.23439 3.16671 7.73195 3.16671 9.50001C3.16671 11.2681 3.78025 12.7656 5.00733 13.9927C6.23442 15.2198 7.73199 15.8333 9.50004 15.8333Z" fill="white"/>
</svg>
