<svg width="14" height="14" viewBox="0 0 14 14" fill="none" xmlns="http://www.w3.org/2000/svg">
<path fill-rule="evenodd" clip-rule="evenodd" d="M4.08366 1.16667C3.31011 1.16667 2.56825 1.47396 2.02126 2.02094C1.47428 2.56792 1.16699 3.30979 1.16699 4.08333V9.91667C1.16699 10.6902 1.47428 11.4321 2.02126 11.9791C2.56825 12.526 3.31011 12.8333 4.08366 12.8333H9.91699C10.6905 12.8333 11.4324 12.526 11.9794 11.9791C12.5264 11.4321 12.8337 10.6902 12.8337 9.91667V4.08333C12.8337 3.30979 12.5264 2.56792 11.9794 2.02094C11.4324 1.47396 10.6905 1.16667 9.91699 1.16667H4.08366ZM9.17616 6.23233C9.22856 6.17641 9.26943 6.11072 9.29644 6.039C9.32344 5.96729 9.33606 5.89095 9.33357 5.81436C9.33108 5.73777 9.31353 5.66241 9.28191 5.59261C9.2503 5.5228 9.20525 5.4599 9.14933 5.4075C9.0934 5.3551 9.02771 5.31423 8.95599 5.28722C8.88428 5.26022 8.80794 5.2476 8.73135 5.25009C8.65476 5.25258 8.57941 5.27013 8.5096 5.30175C8.43979 5.33336 8.37689 5.37841 8.32449 5.43433L6.52608 7.3535L5.63766 6.56425C5.52126 6.46749 5.37181 6.41976 5.22087 6.43114C5.06993 6.44253 4.92933 6.51215 4.82876 6.62528C4.7282 6.73841 4.67555 6.88621 4.68194 7.03744C4.68833 7.18867 4.75325 7.3315 4.86299 7.43575L6.17549 8.60242C6.28906 8.7033 6.4375 8.7559 6.58925 8.74904C6.74099 8.74217 6.88408 8.67639 6.98808 8.56567L9.17616 6.23233Z" fill="#76FF5E"/>
</svg>
